<svg xmlns="http://www.w3.org/2000/svg" viewBox="0 0 1600 1000" preserveAspectRatio="xMidYMid slice">
  <defs>
    <linearGradient id="sky" x1="0" x2="0" y1="0" y2="1">
      <stop offset="0" stop-color="#9ed8c2"/>
      <stop offset="0.55" stop-color="#dff0c2"/>
      <stop offset="1" stop-color="#f4d184"/>
    </linearGradient>
    <linearGradient id="field" x1="0" x2="1">
      <stop offset="0" stop-color="#1b5b35"/>
      <stop offset="0.5" stop-color="#3f8f3b"/>
      <stop offset="1" stop-color="#89b943"/>
    </linearGradient>
  </defs>
  <rect width="1600" height="1000" fill="url(#sky)"/>
  <circle cx="1280" cy="160" r="82" fill="#f4c853"/>
  <path d="M0 420 C240 350 450 390 680 330 C940 260 1180 340 1600 250 L1600 1000 L0 1000 Z" fill="#285f38"/>
  <path d="M0 520 C260 455 520 510 800 430 C1040 362 1320 425 1600 360 L1600 1000 L0 1000 Z" fill="url(#field)"/>
  <g opacity=".55" stroke="#f4e3a2" stroke-width="5">
    <path d="M60 1000 L620 455"/>
    <path d="M230 1000 L740 440"/>
    <path d="M420 1000 L860 425"/>
    <path d="M620 1000 L990 410"/>
    <path d="M850 1000 L1110 398"/>
    <path d="M1100 1000 L1240 382"/>
    <path d="M1370 1000 L1390 370"/>
  </g>
  <g opacity=".45">
    <path d="M0 760 C260 710 420 815 680 760 C920 710 1160 790 1600 735 L1600 1000 L0 1000 Z" fill="#123f28"/>
    <path d="M0 890 C300 845 560 930 840 875 C1120 820 1330 910 1600 860 L1600 1000 L0 1000 Z" fill="#0b3322"/>
  </g>
</svg>
